<svg width="178" height="32" viewBox="0 0 178 32" fill="none" xmlns="http://www.w3.org/2000/svg">
<path d="M6.54545 0C2.93058 0 0 2.93058 0 6.54545H26.1818V0H6.54545Z" fill="#91BDB4"/>
<path d="M19.6364 19.2727C23.2512 19.2727 26.1818 16.3422 26.1818 12.7273H3.63636C1.62802 12.7273 0 14.3553 0 16.3636V32H6.54545V19.2727H19.6364Z" fill="#91BDB4"/>
<path d="M125.844 0C122.23 0 119.299 2.93058 119.299 6.54545H145.481V0H125.844Z" fill="#91BDB4"/>
<path d="M138.935 19.2727C142.55 19.2727 145.481 16.3422 145.481 12.7273H122.935C120.927 12.7273 119.299 14.3553 119.299 16.3636V32H125.844V19.2727H138.935Z" fill="#91BDB4"/>
<path d="M169.83 0L162.335 12.7776L154.826 0H147.299L159.044 20.3636V32H165.408L165.595 20.4441L177.315 0H169.83Z" fill="#91BDB4"/>
<path fill-rule="evenodd" clip-rule="evenodd" d="M89.4545 0H102.694C108.842 0 113.551 2.61604 114.902 8.75148C115.916 13.3856 115.917 18.7095 114.902 23.3436C113.543 29.5191 108.836 31.9905 102.694 31.9905H89.4545V0ZM96 25.4545L102.694 25.4545C108.098 25.4545 109.299 20.5722 109.273 16C109.248 11.61 107.983 6.54545 102.694 6.54545L96 6.54546V25.4545Z" fill="#91BDB4"/>
<path d="M79.2727 21.7575C79.2727 21.7575 72.4982 8.89415 69.0646 1.92168C68.5243 0.726824 67.4918 0 66.165 0H62.4723C60.7242 0 59.6364 1.04485 59.6364 2.72851V31.9983H66.1818V10.5838L75.939 30.0801C76.478 31.2756 77.5108 32 78.8368 32H83.0277C84.7486 32 85.8182 30.9552 85.8182 29.2715V0H79.2709L79.2727 21.7575Z" fill="#91BDB4"/>
<path d="M42.9091 25.4545C47.7605 25.4545 49.449 22.2711 49.449 18.0064L49.4545 0H56V18.0046C56 26.1784 51.9503 32 42.9091 32C33.8012 32 29.8182 26.3537 29.8182 18.0064V0H36.3398V18.0064C36.3398 22.2991 38.0219 25.4545 42.9091 25.4545Z" fill="#91BDB4"/>
</svg>
