<svg width="75" height="19" viewBox="0 0 75 19" fill="none" xmlns="http://www.w3.org/2000/svg">
<path d="M18.7058 17.7049H19.7303V17.5142H18.7058V16.8711H19.8496V16.6804H18.4983V18.5565H19.8628V18.3658H18.7058V17.7049Z" fill="#50645F"/>
<path d="M21.2317 17.9666C21.2317 18.2283 21.0507 18.4013 20.8167 18.4013C20.5826 18.4013 20.4325 18.2416 20.4325 17.9844V17.1727H20.2249V18.0331C20.2249 18.3613 20.4192 18.5875 20.7548 18.5875C20.9933 18.5875 21.1346 18.4678 21.2273 18.317V18.5565H21.4305V17.1683H21.2273V17.9622L21.2317 17.9666Z" fill="#50645F"/>
<path d="M22.1017 17.532V17.1683H21.8941V18.5565H22.1017V18.0021C22.1017 17.5852 22.349 17.3679 22.6493 17.3679H22.6669V17.1461C22.4064 17.1373 22.2033 17.3014 22.1017 17.532Z" fill="#50645F"/>
<path d="M23.5589 17.1417C23.1438 17.1417 22.8391 17.4743 22.8391 17.8646C22.8391 18.2638 23.1394 18.5875 23.5545 18.5875C23.9696 18.5875 24.2787 18.2549 24.2787 17.8646C24.2787 17.4655 23.974 17.1417 23.5589 17.1417ZM24.0668 17.869C24.0668 18.1618 23.8592 18.4013 23.5589 18.4013C23.2587 18.4013 23.0511 18.1618 23.0511 17.8602C23.0511 17.563 23.2542 17.3191 23.5545 17.3191C23.8548 17.3191 24.0668 17.563 24.0668 17.8602V17.869Z" fill="#50645F"/>
<path d="M25.3827 17.1417C25.131 17.1417 24.9676 17.2836 24.8528 17.4521V17.1727H24.6453V18.9911H24.8528V18.2948C24.9588 18.45 25.1266 18.592 25.3827 18.592C25.7183 18.592 26.0407 18.3259 26.0407 17.869C26.0407 17.4078 25.7139 17.1461 25.3827 17.1461V17.1417ZM25.8331 17.869C25.8331 18.2061 25.6123 18.4013 25.3474 18.4013C25.0824 18.4013 24.8484 18.1884 24.8484 17.8646C24.8484 17.5408 25.0913 17.3235 25.3474 17.3235C25.6035 17.3235 25.8331 17.532 25.8331 17.8602V17.869Z" fill="#50645F"/>
<path d="M26.9989 17.1417C26.6148 17.1417 26.3366 17.4655 26.3366 17.8646C26.3366 18.2993 26.6457 18.592 27.0254 18.592C27.286 18.592 27.4538 18.4855 27.5951 18.3303L27.467 18.215C27.3522 18.3347 27.2197 18.4101 27.0299 18.4101C26.7826 18.4101 26.575 18.2416 26.5441 17.94H27.6392C27.6392 17.9178 27.6392 17.9001 27.6392 17.8735C27.6392 17.4699 27.4052 17.1417 26.9945 17.1417H26.9989ZM26.5441 17.7892C26.5706 17.5187 26.7516 17.3147 26.9945 17.3147C27.2683 17.3147 27.414 17.5364 27.4361 17.7892H26.5441Z" fill="#50645F"/>
<path d="M28.5224 17.1506C28.3237 17.1506 28.1736 17.1949 28.019 17.2659L28.0808 17.4344C28.2089 17.3768 28.337 17.3324 28.5004 17.3324C28.7609 17.3324 28.911 17.461 28.911 17.7094V17.7582C28.7874 17.7227 28.6637 17.7005 28.4871 17.7005C28.1382 17.7005 27.8954 17.8557 27.8954 18.1485C27.8954 18.4367 28.1559 18.5875 28.412 18.5875C28.6549 18.5875 28.8139 18.4767 28.911 18.348V18.5565H29.1098V17.7094C29.1098 17.532 29.0612 17.3989 28.9684 17.3058C28.8669 17.2038 28.7167 17.155 28.5224 17.155V17.1506ZM28.9155 18.0465C28.9155 18.2682 28.7079 18.4234 28.4518 18.4234C28.2663 18.4234 28.1029 18.3214 28.1029 18.1485C28.1029 17.9666 28.2486 17.8557 28.5048 17.8557C28.6726 17.8557 28.8095 17.8868 28.911 17.9134V18.0465H28.9155Z" fill="#50645F"/>
<path d="M30.227 17.1417C29.9885 17.1417 29.8472 17.2614 29.7545 17.4122V17.1727H29.5469V18.5609H29.7545V17.767C29.7545 17.5054 29.9311 17.3324 30.1696 17.3324C30.408 17.3324 30.5493 17.4921 30.5493 17.7493V18.5609H30.7569V17.7005C30.7569 17.3723 30.5626 17.1461 30.227 17.1461V17.1417Z" fill="#50645F"/>
<path d="M32.7043 17.5142C32.2936 17.4255 32.1965 17.328 32.1965 17.1506C32.1965 16.9776 32.351 16.8401 32.5939 16.8401C32.7882 16.8401 32.9604 16.9022 33.1327 17.0441L33.2563 16.88C33.0664 16.7248 32.8721 16.6494 32.5983 16.6494C32.2451 16.6494 31.9845 16.8667 31.9845 17.1639C31.9845 17.4788 32.1832 17.6162 32.6116 17.7094C33.0046 17.7937 33.0973 17.8912 33.0973 18.0642C33.0973 18.2549 32.9295 18.388 32.6822 18.388C32.4349 18.388 32.2362 18.2993 32.0419 18.1218L31.9094 18.2771C32.1347 18.4767 32.3775 18.5787 32.6734 18.5787C33.0443 18.5787 33.3137 18.3702 33.3137 18.0465C33.3137 17.7537 33.1194 17.5985 32.7043 17.5098V17.5142Z" fill="#50645F"/>
<path d="M34.2852 17.1417C33.901 17.1417 33.6228 17.4655 33.6228 17.8646C33.6228 18.2993 33.9319 18.592 34.3117 18.592C34.5722 18.592 34.74 18.4855 34.8814 18.3303L34.7533 18.215C34.6385 18.3347 34.506 18.4101 34.3161 18.4101C34.0688 18.4101 33.8613 18.2416 33.8304 17.94H34.9255C34.9255 17.9178 34.9255 17.9001 34.9255 17.8735C34.9255 17.4699 34.6915 17.1417 34.2808 17.1417H34.2852ZM33.8304 17.7892C33.8569 17.5187 34.0379 17.3147 34.2808 17.3147C34.5546 17.3147 34.7003 17.5364 34.7224 17.7892H33.8304Z" fill="#50645F"/>
<path d="M35.9235 18.4057C35.6365 18.4057 35.4157 18.1662 35.4157 17.8646C35.4157 17.563 35.6277 17.3235 35.9103 17.3235C36.0957 17.3235 36.2194 17.4167 36.3298 17.532L36.4667 17.3856C36.3386 17.2481 36.1752 17.1373 35.9147 17.1373C35.5128 17.1373 35.2081 17.4699 35.2081 17.8602C35.2081 18.2549 35.5128 18.5831 35.9147 18.5831C36.1752 18.5831 36.3386 18.4722 36.4799 18.317L36.3474 18.1928C36.237 18.3126 36.1002 18.4013 35.9235 18.4013V18.4057Z" fill="#50645F"/>
<path d="M37.7959 17.9666C37.7959 18.2283 37.6192 18.4013 37.3808 18.4013C37.1423 18.4013 37.001 18.2416 37.001 17.9844V17.1727H36.7935V18.0331C36.7935 18.3613 36.9878 18.5875 37.3234 18.5875C37.5618 18.5875 37.7031 18.4678 37.7959 18.317V18.5565H37.999V17.1683H37.7959V17.9666Z" fill="#50645F"/>
<path d="M38.6658 17.532V17.1683H38.4583V18.5565H38.6658V18.0021C38.6658 17.5852 38.9131 17.3679 39.2134 17.3679H39.231V17.1461C38.9705 17.1373 38.7674 17.3014 38.6658 17.532Z" fill="#50645F"/>
<path d="M39.7698 17.1683H39.5622V18.5565H39.7698V17.1683Z" fill="#50645F"/>
<path d="M39.783 16.6405H39.549V16.8667H39.783V16.6405Z" fill="#50645F"/>
<path d="M40.5249 16.7514H40.3174V17.1727H40.1231V17.3546H40.3174V18.1928C40.3174 18.4767 40.4852 18.5831 40.706 18.5831C40.8031 18.5831 40.8826 18.5609 40.9533 18.5254V18.348C40.8826 18.3835 40.8208 18.3968 40.7545 18.3968C40.6176 18.3968 40.5205 18.3347 40.5205 18.1662V17.3546H40.9577V17.1727H40.5205V16.7514H40.5249Z" fill="#50645F"/>
<path d="M41.5494 17.1683H41.3419V18.5565H41.5494V17.1683Z" fill="#50645F"/>
<path d="M41.5671 16.6405H41.333V16.8667H41.5671V16.6405Z" fill="#50645F"/>
<path d="M42.6048 17.1417C42.2206 17.1417 41.9424 17.4655 41.9424 17.8646C41.9424 18.2993 42.2515 18.592 42.6313 18.592C42.8918 18.592 43.0596 18.4855 43.201 18.3303L43.0729 18.215C42.9581 18.3347 42.8256 18.4101 42.6357 18.4101C42.3884 18.4101 42.1765 18.2416 42.15 17.94H43.2451C43.2451 17.9178 43.2451 17.9001 43.2451 17.8735C43.2451 17.4699 43.0111 17.1417 42.6004 17.1417H42.6048ZM42.15 17.7892C42.1765 17.5187 42.3575 17.3147 42.6004 17.3147C42.8742 17.3147 43.0199 17.5364 43.042 17.7892H42.15Z" fill="#50645F"/>
<path d="M44.1151 17.767C43.9296 17.7094 43.7618 17.6606 43.7618 17.5275C43.7618 17.4078 43.8678 17.3191 44.0267 17.3191C44.1592 17.3191 44.3093 17.3679 44.4374 17.4521L44.5301 17.2969C44.3888 17.2038 44.2034 17.1461 44.0311 17.1461C43.7574 17.1461 43.5586 17.3058 43.5586 17.5453C43.5586 17.807 43.7971 17.8824 44.0179 17.9444C44.199 17.9932 44.3623 18.0509 44.3623 18.1884C44.3623 18.3303 44.2431 18.4146 44.0753 18.4146C43.9075 18.4146 43.7485 18.348 43.5984 18.2372L43.4924 18.3835C43.647 18.5077 43.8678 18.5875 44.0621 18.5875C44.3358 18.5875 44.5522 18.4323 44.5522 18.1706C44.5522 17.9178 44.3226 17.8336 44.1106 17.767H44.1151Z" fill="#50645F"/>
<path d="M46.2612 17.1506C46.0625 17.1506 45.9123 17.1949 45.7578 17.2659L45.8196 17.4344C45.9477 17.3768 46.0757 17.3324 46.2391 17.3324C46.4996 17.3324 46.6498 17.461 46.6498 17.7094V17.7582C46.5261 17.7227 46.4025 17.7005 46.2259 17.7005C45.877 17.7005 45.6341 17.8557 45.6341 18.1485C45.6341 18.4367 45.8947 18.5875 46.1508 18.5875C46.3937 18.5875 46.5526 18.4767 46.6498 18.348V18.5565H46.8485V17.7094C46.8485 17.532 46.7999 17.3989 46.7072 17.3058C46.6056 17.2038 46.4555 17.155 46.2612 17.155V17.1506ZM46.6542 18.0465C46.6542 18.2682 46.4467 18.4234 46.1905 18.4234C46.0051 18.4234 45.8417 18.3214 45.8417 18.1485C45.8417 17.9666 45.9874 17.8557 46.2435 17.8557C46.4113 17.8557 46.5482 17.8868 46.6498 17.9134V18.0465H46.6542Z" fill="#50645F"/>
<path d="M47.9657 17.1417C47.7273 17.1417 47.586 17.2614 47.4932 17.4122V17.1727H47.2857V18.5609H47.4932V17.767C47.4932 17.5054 47.6699 17.3324 47.9083 17.3324C48.1468 17.3324 48.2881 17.4921 48.2881 17.7493V18.5609H48.4956V17.7005C48.4956 17.3723 48.3013 17.1461 47.9657 17.1461V17.1417Z" fill="#50645F"/>
<path d="M50.0456 17.4344C49.9397 17.2792 49.7718 17.1373 49.5157 17.1373C49.1845 17.1373 48.8577 17.4034 48.8577 17.8602C48.8577 18.3214 49.1845 18.5831 49.5157 18.5831C49.7718 18.5831 49.9308 18.4412 50.0456 18.2726V18.5521H50.2532V16.5917H50.0456V17.4344ZM50.05 17.8646C50.05 18.1839 49.8072 18.4013 49.551 18.4013C49.2949 18.4013 49.0653 18.1928 49.0653 17.8646C49.0653 17.5231 49.2861 17.3235 49.551 17.3235C49.816 17.3235 50.05 17.5364 50.05 17.8557V17.8646Z" fill="#50645F"/>
<path d="M52.4391 17.7049L51.759 16.6804H51.547V18.5565H51.7502V17.0397L52.4302 18.042H52.4435L53.1235 17.0352V18.5565H53.3355V16.6804H53.1235L52.4391 17.7049Z" fill="#50645F"/>
<path d="M54.3512 17.1506C54.1524 17.1506 54.0023 17.1949 53.8477 17.2659L53.9096 17.4344C54.0376 17.3768 54.1657 17.3324 54.3291 17.3324C54.5896 17.3324 54.7398 17.461 54.7398 17.7094V17.7582C54.6161 17.7227 54.4925 17.7005 54.3158 17.7005C53.967 17.7005 53.7241 17.8557 53.7241 18.1485C53.7241 18.4367 53.9846 18.5875 54.2408 18.5875C54.4836 18.5875 54.6426 18.4767 54.7398 18.348V18.5565H54.9385V17.7094C54.9385 17.532 54.8899 17.3989 54.7972 17.3058C54.6956 17.2038 54.5455 17.155 54.3512 17.155V17.1506ZM54.7442 18.0465C54.7442 18.2682 54.5366 18.4234 54.2805 18.4234C54.095 18.4234 53.9316 18.3214 53.9316 18.1485C53.9316 17.9666 54.0774 17.8557 54.3335 17.8557C54.5013 17.8557 54.6382 17.8868 54.7398 17.9134V18.0465H54.7442Z" fill="#50645F"/>
<path d="M55.5832 17.532V17.1683H55.3756V18.5565H55.5832V18.0021C55.5832 17.5852 55.8305 17.3679 56.1308 17.3679H56.1484V17.1461C55.8879 17.1373 55.6848 17.3014 55.5832 17.532Z" fill="#50645F"/>
<path d="M57.6675 17.1683H57.4114L56.6651 17.9533V16.6006H56.4576V18.5565H56.6651V18.1972L56.9433 17.909L57.4379 18.5565H57.6852L57.0846 17.767L57.6675 17.1683Z" fill="#50645F"/>
<path d="M58.4889 17.1417C58.1047 17.1417 57.8265 17.4655 57.8265 17.8646C57.8265 18.2993 58.1356 18.592 58.5154 18.592C58.7759 18.592 58.9437 18.4855 59.085 18.3303L58.957 18.215C58.8421 18.3347 58.7097 18.4101 58.5198 18.4101C58.2725 18.4101 58.0649 18.2416 58.034 17.94H59.1292C59.1292 17.9178 59.1292 17.9001 59.1292 17.8735C59.1292 17.4699 58.8951 17.1417 58.4845 17.1417H58.4889ZM58.034 17.7892C58.0605 17.5187 58.2416 17.3147 58.4845 17.3147C58.7582 17.3147 58.904 17.5364 58.9261 17.7892H58.034Z" fill="#50645F"/>
<path d="M59.7739 16.7514H59.5664V17.1727H59.3721V17.3546H59.5664V18.1928C59.5664 18.4767 59.7342 18.5831 59.955 18.5831C60.0521 18.5831 60.1316 18.5609 60.2023 18.5254V18.348C60.1316 18.3835 60.0698 18.3968 60.0035 18.3968C59.8666 18.3968 59.7695 18.3347 59.7695 18.1662V17.3546H60.2067V17.1727H59.7695V16.7514H59.7739Z" fill="#50645F"/>
<path d="M61.0766 17.767C60.8911 17.7094 60.7233 17.6606 60.7233 17.5275C60.7233 17.4078 60.8293 17.3191 60.9883 17.3191C61.1208 17.3191 61.2709 17.3679 61.399 17.4521L61.4917 17.2969C61.3504 17.2038 61.1649 17.1461 60.9927 17.1461C60.7189 17.1461 60.5202 17.3058 60.5202 17.5453C60.5202 17.807 60.7587 17.8824 60.975 17.9444C61.1561 17.9932 61.3195 18.0509 61.3195 18.1884C61.3195 18.3303 61.2003 18.4146 61.0324 18.4146C60.8646 18.4146 60.7057 18.348 60.5555 18.2372L60.4495 18.3835C60.6041 18.5077 60.8249 18.5875 61.0192 18.5875C61.293 18.5875 61.5094 18.4323 61.5094 18.1706C61.5094 17.9178 61.2797 17.8336 61.0678 17.767H61.0766Z" fill="#50645F"/>
<path d="M63.4303 16.6671L62.578 18.5609H62.7944L63.0152 18.0642H64.0353L64.2561 18.5609H64.4813L63.629 16.6671H63.4303ZM63.0991 17.869L63.5274 16.9155L63.9514 17.869H63.0991Z" fill="#50645F"/>
<path d="M65.7707 17.9666C65.7707 18.2283 65.5897 18.4013 65.3556 18.4013C65.1216 18.4013 64.9759 18.2416 64.9759 17.9844V17.1727H64.7683V18.0331C64.7683 18.3613 64.9626 18.5875 65.2982 18.5875C65.5367 18.5875 65.678 18.4678 65.7707 18.317V18.5565H65.9739V17.1683H65.7707V17.9666Z" fill="#50645F"/>
<path d="M66.7157 16.7514H66.5082V17.1727H66.3139V17.3546H66.5082V18.1928C66.5082 18.4767 66.676 18.5831 66.8968 18.5831C66.9939 18.5831 67.0734 18.5609 67.1441 18.5254V18.348C67.0734 18.3835 67.0116 18.3968 66.9454 18.3968C66.8085 18.3968 66.7113 18.3347 66.7113 18.1662V17.3546H67.1485V17.1727H66.7113V16.7514H66.7157Z" fill="#50645F"/>
<path d="M68.1951 17.1417C67.9566 17.1417 67.8153 17.2614 67.7226 17.4122V16.6006H67.515V18.5609H67.7226V17.767C67.7226 17.5054 67.8992 17.3324 68.1377 17.3324C68.3761 17.3324 68.5174 17.4921 68.5174 17.7493V18.5609H68.725V17.7005C68.725 17.3723 68.5307 17.1461 68.1951 17.1461V17.1417Z" fill="#50645F"/>
<path d="M69.798 17.1417C69.3829 17.1417 69.0782 17.4743 69.0782 17.8646C69.0782 18.2638 69.3785 18.5875 69.7936 18.5875C70.2087 18.5875 70.5178 18.2549 70.5178 17.8646C70.5178 17.4655 70.2131 17.1417 69.798 17.1417ZM70.3059 17.869C70.3059 18.1618 70.0983 18.4013 69.798 18.4013C69.4978 18.4013 69.2902 18.1618 69.2902 17.8602C69.2902 17.563 69.4933 17.3191 69.7936 17.3191C70.0939 17.3191 70.3059 17.563 70.3059 17.8602V17.869Z" fill="#50645F"/>
<path d="M71.0919 17.532V17.1683H70.8844V18.5565H71.0919V18.0021C71.0919 17.5852 71.3392 17.3679 71.6395 17.3679H71.6572V17.1461C71.3966 17.1373 71.1935 17.3014 71.0919 17.532Z" fill="#50645F"/>
<path d="M72.1959 17.1683H71.9883V18.5565H72.1959V17.1683Z" fill="#50645F"/>
<path d="M72.2091 16.6405H71.9751V16.8667H72.2091V16.6405Z" fill="#50645F"/>
<path d="M72.951 16.7514H72.7435V17.1727H72.5492V17.3546H72.7435V18.1928C72.7435 18.4767 72.9113 18.5831 73.1321 18.5831C73.2292 18.5831 73.3087 18.5609 73.3794 18.5254V18.348C73.3087 18.3835 73.2469 18.3968 73.1806 18.3968C73.0437 18.3968 72.9466 18.3347 72.9466 18.1662V17.3546H73.3838V17.1727H72.9466V16.7514H72.951Z" fill="#50645F"/>
<path d="M74.7836 17.1683L74.3376 18.3259L73.8342 17.1683H73.609L74.236 18.5521C74.1521 18.7472 74.0771 18.8137 73.9534 18.8137C73.8651 18.8137 73.8033 18.796 73.737 18.7649L73.6664 18.929C73.7591 18.9734 73.8475 19 73.9623 19C74.1698 19 74.3023 18.8936 74.4215 18.6097L75 17.1772H74.7792L74.7836 17.1683Z" fill="#50645F"/>
<path d="M18.4983 15.3898L29.803 15.3987L29.8075 13.017L21.1523 13.0082L21.1567 8.93231L28.73 8.94118L28.7344 6.55509L21.1611 6.54622V2.60341L29.7103 2.61228V0.230626L18.5115 0.21732L18.4983 15.3898Z" fill="#50645F"/>
<path d="M36.3254 0.0221755C33.3314 0.0221755 31.172 1.81839 31.172 4.41737V4.46172C31.172 7.25584 32.9825 8.21382 36.1929 8.9944C38.997 9.64636 39.602 10.2318 39.602 11.3184V11.3627C39.602 12.4893 38.5642 13.2698 36.9259 13.2654C35.0712 13.2654 33.6052 12.5469 32.1612 11.2873L30.5626 13.1944C32.3731 14.8221 34.5502 15.6249 36.8597 15.6293C40.0303 15.6293 42.2559 13.944 42.2604 11.1055V11.0612C42.2604 8.54645 40.6221 7.39776 37.4338 6.61275C34.5193 5.91643 33.8304 5.39753 33.8304 4.22666V4.18231C33.8304 3.18441 34.7401 2.38609 36.29 2.38609C37.6722 2.38609 39.0323 2.93161 40.388 3.95168L41.8144 1.93814C40.282 0.700747 38.5377 0.0266106 36.3342 0.0266106H36.3254V0.0221755Z" fill="#50645F"/>
<path d="M43.5145 15.4164H46.1243L46.1375 4.58147L50.8537 11.6954H50.9421L55.7157 4.55042L55.7068 15.4297H58.3608L58.3741 0.261671L55.5479 0.257236L50.9465 7.42437L46.3583 0.248366L43.5277 0.243931L43.5145 15.4164Z" fill="#50645F"/>
<path d="M64.4945 9.41573L67.0911 3.34851L69.6965 9.42017H64.4945V9.41573ZM61.9642 15.4342L63.523 11.7752L70.6636 11.7841L72.1915 15.4475H74.9956L68.3629 0.164099H65.9032L59.2396 15.4342H61.9642Z" fill="#50645F"/>
<path d="M7.72786 0C3.45668 0 0 3.4717 0 7.76144C0 12.0512 3.45668 15.5229 7.72786 15.5229C11.999 15.5229 15.4557 12.0512 15.4557 7.76144C15.4557 3.4717 11.999 0 7.72786 0ZM5.21482 3.52158C5.27442 3.34201 5.33401 3.16244 5.39361 2.98287C5.45321 3.16244 5.51281 3.34201 5.5724 3.52158H6.13858C5.98959 3.63131 5.83066 3.74105 5.68167 3.86077C5.74127 4.04034 5.80086 4.21991 5.85053 4.39948C5.70153 4.28974 5.54261 4.18 5.39361 4.07027C5.24462 4.18 5.08569 4.28974 4.93669 4.39948C4.99629 4.21991 5.05589 4.04034 5.11549 3.86077C4.96649 3.75103 4.80757 3.64129 4.65857 3.52158H5.22475H5.21482ZM3.50634 5.23747C3.56594 5.0579 3.62554 4.87833 3.68514 4.69876C3.74474 4.87833 3.80433 5.0579 3.86393 5.23747C4.05266 5.23747 4.24139 5.23747 4.43011 5.23747C4.28112 5.34721 4.12219 5.45695 3.97319 5.57666C4.03279 5.75623 4.09239 5.9358 4.15199 6.11537C4.00299 6.00564 3.84407 5.8959 3.69507 5.78616C3.54608 5.8959 3.38715 6.00564 3.23815 6.11537C3.29775 5.9358 3.35735 5.75623 3.41695 5.57666C3.26795 5.46692 3.10903 5.35719 2.96003 5.23747C3.14876 5.23747 3.33748 5.23747 3.52621 5.23747H3.50634ZM2.31439 7.58187H2.88057C2.94017 7.4023 2.99976 7.22273 3.05936 7.04316C3.11896 7.22273 3.17856 7.4023 3.23815 7.58187H3.80433C3.65534 7.6916 3.49641 7.80134 3.34742 7.92106C3.40701 8.10063 3.46661 8.2802 3.51628 8.45977C3.36728 8.35003 3.20835 8.24029 3.05936 8.13055C2.91036 8.24029 2.75144 8.35003 2.60244 8.45977C2.66204 8.2802 2.72164 8.10063 2.78124 7.92106C2.63224 7.81132 2.47331 7.70158 2.32432 7.58187H2.31439ZM4.13212 10.8042C3.98313 10.6944 3.8242 10.5847 3.6752 10.4749C3.52621 10.5847 3.36728 10.6944 3.21829 10.8042C3.27788 10.6246 3.33748 10.445 3.39708 10.2654C3.24809 10.1557 3.08916 10.046 2.94016 9.92626H3.50634C3.56594 9.74669 3.62554 9.56712 3.68514 9.38755C3.74474 9.56712 3.80433 9.74669 3.86393 9.92626H4.43011C4.28112 10.036 4.12219 10.1457 3.97319 10.2654C4.03279 10.445 4.09239 10.6246 4.14205 10.8042H4.13212ZM5.8406 12.53C5.6916 12.4203 5.53267 12.3106 5.38368 12.2008C5.23468 12.3106 5.07576 12.4203 4.92676 12.53C4.98636 12.3505 5.04596 12.1709 5.10556 11.9913C4.95656 11.8816 4.79763 11.7718 4.64864 11.6521H5.21482C5.27442 11.4726 5.33401 11.293 5.39361 11.1134C5.45321 11.293 5.51281 11.4726 5.5724 11.6521H6.13858C5.98959 11.7619 5.83066 11.8716 5.68167 11.9913C5.74127 12.1709 5.80086 12.3505 5.86046 12.53H5.8406ZM8.18478 13.1585C8.03578 13.0488 7.87686 12.9391 7.72786 12.8293C7.57887 12.9391 7.41994 13.0488 7.27095 13.1585C7.33054 12.979 7.39014 12.7994 7.44974 12.6198C7.30074 12.5101 7.14182 12.4003 6.99282 12.2806H7.559C7.6186 12.1011 7.6782 11.9215 7.7378 11.7419C7.79739 11.9215 7.85699 12.1011 7.91659 12.2806H8.48277C8.33377 12.3904 8.17485 12.5001 8.02585 12.6098C8.08545 12.7894 8.14505 12.969 8.19471 13.1486L8.18478 13.1585ZM8.00599 3.22229C8.06559 3.40186 8.12518 3.58143 8.18478 3.761C8.03578 3.65127 7.87686 3.54153 7.72786 3.43179C7.57887 3.54153 7.41994 3.65127 7.27095 3.761C7.33054 3.58143 7.39014 3.40186 7.44974 3.22229C7.30074 3.11256 7.14182 3.00282 6.99282 2.8831H7.559C7.6186 2.70353 7.6782 2.52396 7.7378 2.34439C7.79739 2.52396 7.85699 2.70353 7.91659 2.8831H8.48277C8.33377 2.99284 8.17485 3.10258 8.02585 3.22229H8.00599ZM10.519 12.53C10.37 12.4203 10.2111 12.3106 10.0621 12.2008C9.91312 12.3106 9.75419 12.4203 9.6052 12.53C9.66479 12.3505 9.72439 12.1709 9.77406 11.9913C9.62506 11.8816 9.46613 11.7718 9.31714 11.6521H9.88332C9.94292 11.4726 10.0025 11.293 10.0621 11.1134C10.1217 11.293 10.1813 11.4726 10.2409 11.6521C10.4296 11.6521 10.6184 11.6521 10.8071 11.6521C10.6581 11.7619 10.4992 11.8716 10.3502 11.9813C10.4098 12.1609 10.4694 12.3405 10.529 12.5201L10.519 12.53ZM10.3502 3.85079C10.4098 4.03036 10.4694 4.20993 10.529 4.3895C10.38 4.27976 10.221 4.17003 10.072 4.05031C9.92305 4.16005 9.76413 4.26979 9.61513 4.3895C9.67473 4.20993 9.73433 4.03036 9.78399 3.85079C9.635 3.74105 9.47607 3.63131 9.32707 3.5116C9.5158 3.5116 9.70453 3.5116 9.89325 3.5116C9.95285 3.33203 10.0124 3.15246 10.072 2.97289C10.1316 3.15246 10.1912 3.33203 10.2508 3.5116C10.4396 3.5116 10.6283 3.5116 10.817 3.5116C10.668 3.62134 10.5091 3.73108 10.3601 3.85079H10.3502ZM11.6017 5.23747C11.6613 5.0579 11.7209 4.87833 11.7805 4.69876C11.8401 4.87833 11.8997 5.0579 11.9593 5.23747H12.5255C12.3765 5.34721 12.2176 5.45695 12.0686 5.57666C12.1282 5.75623 12.1878 5.9358 12.2474 6.11537C12.0984 6.00564 11.9394 5.8959 11.7905 5.78616C11.6415 5.8959 11.4825 6.00564 11.3335 6.12535C11.3931 5.94578 11.4527 5.76621 11.5024 5.58664C11.3534 5.4769 11.1945 5.36716 11.0455 5.25743H11.6117L11.6017 5.23747ZM12.2275 10.8042C12.0785 10.6944 11.9196 10.5847 11.7706 10.4749C11.6216 10.5847 11.4627 10.6944 11.3137 10.8042C11.3733 10.6246 11.4329 10.445 11.4925 10.2654C11.3435 10.1557 11.1845 10.046 11.0355 9.92626H11.6017C11.6613 9.74669 11.7209 9.56712 11.7805 9.38755C11.8401 9.56712 11.8997 9.74669 11.9593 9.92626H12.5255C12.3765 10.036 12.2176 10.1457 12.0686 10.2654C12.1282 10.445 12.1878 10.6246 12.2374 10.8042H12.2275ZM12.8533 8.45977C12.7043 8.35003 12.5454 8.24029 12.3964 8.13055C12.2474 8.24029 12.0884 8.35003 11.9395 8.45977C11.999 8.2802 12.0586 8.10063 12.1182 7.92106C11.9692 7.81132 11.8103 7.70158 11.6613 7.58187C11.85 7.58187 12.0388 7.58187 12.2275 7.58187C12.2871 7.4023 12.3467 7.22273 12.4063 7.04316C12.4659 7.22273 12.5255 7.4023 12.5851 7.58187C12.7738 7.58187 12.9625 7.58187 13.1513 7.58187C13.0023 7.6916 12.8434 7.80134 12.6944 7.92106C12.754 8.10063 12.8135 8.2802 12.8632 8.45977H12.8533Z" fill="#50645F"/>
</svg>
